<?xml version="1.0" encoding="UTF-8" standalone="no"?>
<!-- Created with Inkscape (http://www.inkscape.org/) -->

<svg
   width="208.735mm"
   height="208.735mm"
   viewBox="0 0 208.735 208.735"
   version="1.1"
   id="svg1"
   xml:space="preserve"
   sodipodi:docname="Team 20 Logo Black Button White BG.svg"
   inkscape:version="1.3 (0e150ed6c4, 2023-07-21)"
   xmlns:inkscape="http://www.inkscape.org/namespaces/inkscape"
   xmlns:sodipodi="http://sodipodi.sourceforge.net/DTD/sodipodi-0.dtd"
   xmlns="http://www.w3.org/2000/svg"
   xmlns:svg="http://www.w3.org/2000/svg"><sodipodi:namedview
     id="namedview1"
     pagecolor="#019d04"
     bordercolor="#000000"
     borderopacity="0.25"
     inkscape:showpageshadow="2"
     inkscape:pageopacity="0.0"
     inkscape:pagecheckerboard="0"
     inkscape:deskcolor="#d1d1d1"
     inkscape:document-units="mm"
     inkscape:zoom="0.70710678"
     inkscape:cx="364.8671"
     inkscape:cy="408.00061"
     inkscape:window-width="1920"
     inkscape:window-height="991"
     inkscape:window-x="-9"
     inkscape:window-y="-9"
     inkscape:window-maximized="1"
     inkscape:current-layer="layer1"
     showgrid="false" /><defs
     id="defs1" /><g
     inkscape:label="Layer 1"
     inkscape:groupmode="layer"
     id="layer1"
     transform="matrix(2.0078382,0,0,2.0078382,-129.23867,-440.51974)"><ellipse
       style="fill:#000000;stroke-width:0.131775"
       id="path6"
       cx="114.08067"
       cy="270.98904"
       rx="47.175533"
       ry="24.773743"
       inkscape:label="Background" /><path
       id="path62506"
       style="display:inline;fill:#000000;fill-opacity:1;fill-rule:evenodd;stroke:none;stroke-width:0.0378974"
       inkscape:label="Green Stripe Border"
       d="m 113.35435,242.54094 c -11.66628,0.22107 -23.51581,2.40798 -33.88946,7.93314 -5.548279,3.01188 -10.76193,7.23194 -13.527508,13.03367 -2.214537,4.73418 -2.100485,10.49985 0.429291,15.09231 2.315902,4.4588 6.199589,7.89399 10.345433,10.60604 1.884714,1.16879 1.688053,0.69519 1.999439,-1.4896 0.522391,-1.5489 1.096449,-3.07976 1.642965,-4.62024 -3.494395,-2.71572 -6.720782,-6.35704 -7.360484,-10.89209 -0.677404,-4.50272 1.686559,-8.91558 4.925611,-11.89568 5.395174,-5.12066 12.612112,-7.92397 19.688366,-9.64179 10.479867,-2.46693 21.390937,-2.53511 31.936407,-0.4734 0.70366,0.0864 1.43635,0.40861 2.11689,0.37359 3.03415,-1.79278 6.46488,-2.72327 9.73705,-3.97231 -8.39575,-2.50511 -17.11488,-4.02297 -25.89031,-4.05808 -0.71789,-0.008 -1.43582,-0.003 -2.15369,0.004 z m 39.5566,10.73838 c 0.14775,2.71994 0.12135,5.46731 -0.47419,8.13876 2.72448,2.99575 4.53328,7.13409 3.76335,11.22892 -0.74542,4.27887 -3.76438,7.74469 -7.1765,10.23806 -1.23076,0.93144 -2.54907,1.736 -3.84228,2.57582 1.31052,1.19571 2.11719,3.01963 1.69951,4.79639 -0.0871,1.15052 1.48402,1.68459 2.26181,0.95047 5.45728,-2.93202 10.67806,-6.8564 13.66626,-12.41137 2.46917,-4.55154 2.79573,-10.2399 0.62531,-14.97082 -1.93959,-4.46085 -5.55116,-7.90384 -9.35516,-10.80723 -0.51478,-0.41236 -2.06571,-1.75554 -1.91339,-0.82832 0.007,0.26527 0.73801,0.82406 0.74528,1.08932 z m -55.987279,37.20246 c -2.848144,0.34455 -5.763707,0.31171 -8.550667,1.04474 -0.908522,0.16658 -11.638311,-2.74328 -10.873985,-2.09038 0.46375,0.36565 3.431877,2.37634 5.34139,3.18172 2.584061,1.08986 5.382515,1.60131 8.128478,2.17128 6.120921,1.27052 12.307203,2.29077 18.548323,2.77104 1.04658,0.0517 2.09959,0.14947 3.15138,0.16502 1.90706,0.0281 4.67661,-0.0188 5.72032,-0.13021 1.54279,-0.19278 8.49572,-0.26655 9.7867,-0.68456 -1.78983,-1.13256 -12.2021,-2.80213 -14.36863,-2.92809 -5.63701,-0.97307 -11.2417,-2.1125 -16.786793,-3.50891 z"
       sodipodi:nodetypes="ccccccccccccccccsccccccccccsscccaacaccccc" /><path
       id="path40932-6"
       style="display:inline;fill:#019d04;fill-opacity:1;fill-rule:evenodd;stroke:none;stroke-width:0.0378974"
       d="m 96.888369,292.19813 c 5.772911,1.478 13.099621,2.91014 18.676221,3.81248 -6.40277,0.33539 -18.239643,-1.53447 -25.565592,-3.17807 z m 34.408201,-43.37852 c -5.13472,-1.15966 -10.76741,-1.80392 -16.67638,-1.80392 -23.998916,0 -43.454273,10.57338 -43.454273,23.62032 0,4.80616 2.642018,9.27767 7.179627,13.00792 l -1.323151,3.70258 c -6.85693,-4.55111 -10.972626,-10.36912 -10.972626,-16.7105 0,-14.58178 21.746255,-26.3982 48.570423,-26.3982 7.55182,0 14.70078,0.93607 21.07513,2.60734 -1.5356,0.51541 -3.00261,1.17482 -4.39875,1.97446 z m 31.89513,21.81603 c 0,7.39682 -5.52086,14.08306 -14.5385,18.87632 0.11029,-1.1354 -0.15689,-2.56035 -0.9751,-3.63474 6.64263,-4.14788 10.39748,-9.31102 10.39748,-15.24158 0,-3.45663 -1.36771,-6.74044 -3.82268,-9.69643 0.35584,-1.89487 0.50403,-3.64573 0.43202,-5.22985 5.36511,4.24452 8.50678,9.38643 8.50678,14.92628"
       inkscape:connector-curvature="0"
       inkscape:label="Green Stripe" /><path
       id="path62505"
       style="display:inline;fill:#000000;fill-opacity:1;fill-rule:evenodd;stroke:none;stroke-width:0.0378974"
       inkscape:label="20 Border"
       d="m 142.53765,246.06585 c -7.30971,0.259 -14.21004,4.18039 -18.69192,9.8778 -1.18178,1.44054 -2.24703,2.97642 -3.20447,4.57432 0.60701,-2.48384 0.6933,-5.33484 -0.87283,-7.50092 -1.60745,-2.46253 -4.62081,-3.42566 -7.40616,-3.71434 -4.65628,-0.39907 -9.41298,0.2666 -13.790373,1.89997 -4.836786,1.79502 -9.008517,5.32837 -11.461854,9.87881 -1.176186,2.07349 -2.02408,4.31248 -2.748049,6.57861 5.303506,-0.48891 10.607,-0.978 15.910336,-1.46871 0.63637,-1.66916 1.25149,-3.82272 3.18291,-4.37676 0.46228,-0.0638 -0.15675,0.89272 -0.2287,1.19805 -1.19731,2.15211 -3.15806,3.74305 -4.986097,5.34166 -5.197672,4.31857 -11.167017,7.64065 -16.823638,11.39506 -0.873774,0.46644 -1.711613,1.17305 -1.862677,2.20845 -1.398452,3.91207 -2.796842,7.82415 -4.195334,11.73621 11.551754,-1.06527 23.103582,-2.12974 34.655296,-3.1955 1.546,-4.33027 3.09488,-8.65951 4.64112,-12.98971 -0.33824,3.2911 0.0787,6.99533 2.43387,9.50887 2.1052,2.21036 5.25689,3.03068 8.23103,2.94236 7.22893,0.0492 14.19761,-3.56611 18.8168,-9.04165 4.38667,-5.03006 7.2394,-11.24467 8.99065,-17.64226 0.99495,-3.85086 1.61922,-8.10185 0.0415,-11.88729 -1.16223,-2.66853 -3.74693,-4.555 -6.59521,-5.03852 -1.32546,-0.27643 -2.68618,-0.32435 -4.03617,-0.28451 z m -4.54671,12.91836 c -0.45199,3.26755 -1.73045,6.37748 -2.78364,9.44251 -1.05069,2.70815 -2.00377,5.51545 -3.6703,7.91976 -0.25236,0.30495 -0.55134,0.58199 -0.9148,0.74694 0.87352,-4.62848 2.70727,-9.03713 4.38382,-13.391 0.7087,-1.58227 1.35831,-3.29623 2.62102,-4.52568 0.0979,-0.0734 0.28352,-0.21843 0.3639,-0.19253 z m -20.82633,8.81646 c -1.0801,2.98079 -2.03978,6.03521 -2.45275,9.18785 -3.08153,0.28359 -6.16298,0.56795 -9.24449,0.85185 4.38895,-2.88972 8.68178,-6.12052 11.83152,-10.38379 -0.0448,0.1147 -0.0895,0.22939 -0.13428,0.34409 z" /><path
       id="path40934-4"
       style="display:inline;fill:#ffffff;fill-opacity:1;fill-rule:evenodd;stroke:none;stroke-width:0.0378974"
       d="m 81.430394,281.76876 9.824146,-6.29438 c 9.17913,-5.87638 12.97531,-9.97308 13.87576,-12.51904 0.80873,-2.2852 -0.17547,-3.01284 -1.58904,-2.88398 -1.65801,0.15159 -3.34104,1.33398 -4.490465,4.52115 l -12.188566,1.12215 c 3.374765,-9.39515 10.58361,-13.80641 20.236461,-14.69699 11.75047,-1.08387 13.6408,4.33925 11.48216,10.44073 -2.1503,6.04995 -7.21415,11.13653 -19.923809,18.62052 l -0.01706,0.10495 13.700299,-1.26274 -3.56691,9.97915 -30.909243,2.84799 z m 49.022196,-2.92416 c 1.85356,-0.17092 3.27585,-1.22599 6.82419,-11.10054 3.5002,-9.87075 2.77712,-10.72723 0.92507,-10.5567 -1.8528,0.17054 -3.25344,1.23165 -6.7753,11.09599 -3.52822,9.88217 -2.82676,10.73179 -0.97396,10.56125 z m 11.11493,-31.00274 c 10.96977,-1.00807 13.08367,6.54488 8.77514,18.69897 -4.35706,12.15597 -12.23706,20.63286 -23.20685,21.64321 -10.96903,1.0111 -13.13259,-6.5411 -8.77552,-18.69745 4.30855,-12.15143 12.23783,-20.63287 23.20723,-21.64473"
       inkscape:connector-curvature="0"
       inkscape:label="20"
       sodipodi:nodetypes="cccccccccccccccccscccccc" /><path
       id="path3"
       style="display:inline;fill:#000000;fill-opacity:1;fill-rule:evenodd;stroke:none;stroke-width:0.0378974"
       inkscape:label="Top Rocket Fin Border"
       d="m 148.3418,280.94181 c -3.2935,0.16887 -6.75802,1.93036 -8.07478,5.08431 -0.29098,0.99096 -0.18005,2.04 -0.25725,3.05827 2.33739,-0.38576 4.67411,-0.77567 7.01171,-1.16016 -0.33915,-1.18841 0.17456,-2.60549 1.38277,-3.05768 0.99762,-0.43856 2.38716,-0.88897 2.45122,-2.18841 0.0819,-1.34621 -1.40766,-1.85423 -2.51367,-1.73633 z" /><path
       id="path4"
       style="display:inline;fill:#000000;fill-opacity:1;fill-rule:evenodd;stroke:none;stroke-width:0.0378974"
       inkscape:label="Bottom Rocket Fin Border"
       d="m 146.60742,289.47892 c -1.95703,0.63276 -3.88773,1.4009 -5.8418,2.06641 0.66969,2.03394 2.49925,3.59322 4.61592,3.91874 2.68107,0.558 5.70174,0.089 7.83721,-1.69804 1.01362,-1.09697 -0.22323,-3.04725 -1.64258,-2.68359 -1.26937,0.0888 -2.99404,0.35688 -3.74414,-0.95899 -0.27187,-0.39413 -0.73369,-0.68534 -1.22461,-0.64453 z" /><path
       id="path2"
       style="display:inline;fill:#000000;fill-opacity:1;fill-rule:evenodd;stroke:none;stroke-width:0.0378974"
       inkscape:label="Rocket Border"
       d="m 145.13672,285.01798 c -6.01992,1.02742 -12.05848,2.05527 -17.94141,3.71485 -3.90348,1.30464 -7.14141,3.96842 -10.06135,6.78573 -0.52805,0.48318 -1.0558,0.96669 -1.58318,1.45059 4.11974,0.72647 8.25082,1.97195 12.47673,1.4861 3.88092,-0.40755 7.50824,-1.94565 11.21313,-3.0669 2.78616,-0.92636 5.55641,-1.89795 8.31014,-2.91724 1.58437,-1.3743 1.41172,-3.80785 0.48967,-5.50653 -0.53362,-1.08324 -1.6341,-2.03538 -2.90373,-1.9466 z" /><path
       id="path40936-8"
       style="display:inline;fill:#2d6412;fill-opacity:1;fill-rule:evenodd;stroke:none;stroke-width:0.0378974"
       d="m 141.67212,287.2006 c -4.42376,0.80911 -9.99734,1.93732 -12.15218,2.50919 -3.86251,1.02549 -4.32827,1.66558 -5.8688,2.51752 -1.60003,0.88491 -3.41076,2.61606 -4.66934,3.73858 l -0.0311,0.03 c 0.0178,0.002 0.0258,0.004 0.0459,0.008 1.67771,0.34638 4.1418,0.95084 5.98665,0.9247 1.77663,-0.025 2.52359,0.29484 6.38799,-0.72309 2.14006,-0.56391 7.4745,-2.32197 11.69249,-3.79542 l 3.5309,-1.26008 c 0.008,-0.003 0.0186,-0.011 0.0258,-0.014 0.67344,-0.6632 0.63175,-1.44541 0.36761,-2.53989 -0.001,-0.002 0,-0.0107 -8.6e-4,-0.0129 -8.5e-4,-0.005 8.6e-4,-0.008 -2.8e-4,-0.0129 -0.34259,-1.03839 -0.71588,-1.72774 -1.58677,-1.98583 l -3.72797,0.6166 v 0"
       inkscape:connector-curvature="0"
       inkscape:label="Rocket" /><path
       id="path40938-1"
       style="display:inline;fill:#ffffff;fill-opacity:1;fill-rule:evenodd;stroke:none;stroke-width:0.0378974"
       d="m 148.62554,282.52595 c -0.57756,0.014 -1.35597,0.13605 -1.54432,0.1694 -2.82639,0.49873 -5.50043,2.85558 -5.4091,4.50525 l 3.72797,-0.61659 c 0.006,-0.33616 0.0834,-0.66094 0.27286,-1.18392 0.22663,-0.62455 0.78637,-1.10432 1.29458,-1.51362 0.67381,-0.54269 2.32955,-1.07098 2.29923,-1.22977 -0.0193,-0.1012 -0.29446,-0.13909 -0.64122,-0.13075 v 0"
       inkscape:connector-curvature="0"
       inkscape:label="Top Rocket Fin" /><path
       id="path40940-9"
       style="display:inline;fill:#ffffff;fill-opacity:1;fill-rule:evenodd;stroke:none;stroke-width:0.0378974"
       d="m 143.06371,292.4096 c 0.80873,1.4526 4.30629,2.20828 6.99509,1.29761 0.28916,-0.0982 2.01765,-0.75416 1.92329,-1.01262 -0.0561,-0.15274 -1.77207,0.17849 -2.63689,0.0295 -0.65182,-0.11218 -1.39007,-0.26452 -1.90888,-0.69846 -0.42635,-0.35661 -0.66472,-0.5946 -0.8417,-0.87618 l -3.53091,1.26009"
       inkscape:connector-curvature="0"
       inkscape:label="Bottom Rocket Fin" /><path
       id="path40942-24"
       style="display:inline;fill:#f4fcf0;fill-opacity:1;fill-rule:nonzero;stroke:none;stroke-width:0.0378974"
       d="m 121.18061,294.01418 0.77273,-0.27438 0.1531,-0.47448 c 0.0716,-0.0553 0.14363,-0.10953 0.21564,-0.16296 l -0.23155,0.71702 -0.0114,0.0357 -0.036,0.0129 -1.18202,0.41952 c 0.10536,-0.0913 0.21185,-0.18267 0.31948,-0.27324 z m 23.65935,-2.67556 c 0.0731,0 0.13985,0.0285 0.1876,0.0751 0.0481,0.0459 0.0781,0.1099 0.0781,0.18076 0,0.0325 -0.006,0.064 -0.0186,0.0928 l -0.37177,0.13303 c -0.0231,-0.0121 -0.0443,-0.0273 -0.0629,-0.0455 -0.0481,-0.0459 -0.0777,-0.1099 -0.0777,-0.1804 0,-0.0705 0.0296,-0.13415 0.0777,-0.18076 v 0 0 c 0.0481,-0.0466 0.11445,-0.0751 0.18759,-0.0751 z m 0.0777,0.18114 c -0.0201,-0.0193 -0.0474,-0.031 -0.0777,-0.031 -0.0303,0 -0.058,0.0117 -0.0773,0.0307 l -2.8e-4,2.9e-4 c -0.0197,0.019 -0.0318,0.0451 -0.0318,0.0747 0,0.0288 0.0121,0.0553 0.0322,0.0742 0.0197,0.0193 0.047,0.031 0.0773,0.031 0.0303,0 0.0576,-0.0117 0.0777,-0.0307 v -2.9e-4 c 0.0197,-0.019 0.0318,-0.0454 0.0318,-0.0742 0,-0.0292 -0.0121,-0.0557 -0.0318,-0.0747 z m -0.77917,-0.53776 c 0.0732,0 0.13984,0.0288 0.18798,0.075 0.0478,0.0462 0.0777,0.11028 0.0777,0.18078 0,0.0702 -0.0299,0.13415 -0.0777,0.18039 l -8.6e-4,2.8e-4 c -0.0478,0.0462 -0.11407,0.0751 -0.18721,0.0751 -0.0735,0 -0.13984,-0.0288 -0.18759,-0.0751 -0.0481,-0.0462 -0.0781,-0.11028 -0.0781,-0.18077 0,-0.0705 0.0299,-0.13415 0.0781,-0.18039 v -2.9e-4 0 c 0.0485,-0.0462 0.11445,-0.075 0.18759,-0.075 z m 0.0777,0.18115 c -0.0201,-0.0193 -0.0474,-0.031 -0.0777,-0.031 -0.0303,0 -0.058,0.0117 -0.0773,0.0307 l -2.9e-4,2.8e-4 c -0.0197,0.019 -0.0318,0.0454 -0.0318,0.0747 0,0.0292 0.0121,0.0553 0.0322,0.0747 0.0197,0.019 0.047,0.0307 0.0773,0.0307 0.0303,0 0.058,-0.0117 0.0777,-0.0303 v -2.8e-4 c 0.0197,-0.0193 0.0318,-0.0454 0.0318,-0.0747 0,-0.0292 -0.0121,-0.0558 -0.0318,-0.0747 z m -0.87656,-0.56581 c 0.0731,0 0.13946,0.0285 0.18759,0.0751 0.0481,0.0462 0.0777,0.11028 0.0777,0.18078 0,0.0705 -0.0296,0.13415 -0.0777,0.18038 v 2.9e-4 c -0.0481,0.0462 -0.11445,0.0747 -0.18759,0.0747 -0.0735,0 -0.13985,-0.0285 -0.18798,-0.0747 -0.0478,-0.0462 -0.0777,-0.11028 -0.0777,-0.18077 0,-0.0701 0.0299,-0.13415 0.0777,-0.18077 h 2.9e-4 v 0 c 0.0481,-0.0466 0.11445,-0.0751 0.18759,-0.0751 z m 0.0773,0.18115 c -0.0197,-0.0193 -0.047,-0.031 -0.0773,-0.031 -0.0307,0 -0.058,0.0117 -0.0777,0.0307 v 2.8e-4 c -0.0197,0.019 -0.0322,0.0451 -0.0322,0.0747 0,0.0292 0.0125,0.0553 0.0322,0.0747 0.0201,0.019 0.0474,0.0307 0.0777,0.0307 0.0303,0 0.0576,-0.0117 0.0773,-0.0307 h 2.8e-4 c 0.0197,-0.0193 0.0318,-0.0454 0.0318,-0.0747 0,-0.0292 -0.0121,-0.0558 -0.0322,-0.0747 z m -1.5879,0.27854 c 0.0735,0 0.13984,0.0288 0.18797,0.0751 0.0481,0.0462 0.0777,0.11028 0.0777,0.18077 0,0.0705 -0.0296,0.13415 -0.0777,0.18039 l -2.9e-4,2.8e-4 c -0.0481,0.0462 -0.11445,0.0751 -0.18759,0.0751 -0.0731,0 -0.13946,-0.0288 -0.18759,-0.0751 -0.0478,-0.0462 -0.0777,-0.11027 -0.0777,-0.18077 0,-0.0705 0.0296,-0.13415 0.0777,-0.18077 h 2.8e-4 v 0 c 0.0481,-0.0462 0.11445,-0.0751 0.18722,-0.0751 z m 0.0777,0.18116 c -0.0197,-0.019 -0.047,-0.031 -0.0777,-0.031 -0.0303,0 -0.0576,0.0117 -0.0773,0.0307 l -2.8e-4,2.8e-4 c -0.0197,0.019 -0.0318,0.0451 -0.0318,0.0747 0,0.0292 0.0125,0.0553 0.0322,0.0747 0.0197,0.019 0.0474,0.0307 0.0773,0.0307 0.0307,0 0.058,-0.0114 0.0777,-0.0303 l 2.8e-4,-2.8e-4 c 0.0197,-0.0193 0.0318,-0.0455 0.0318,-0.0747 0,-0.0292 -0.0125,-0.0558 -0.0322,-0.0747 z m 0.89703,-1.99189 c 0.0731,0 0.13946,0.0288 0.18759,0.0751 0.0481,0.0462 0.0777,0.10991 0.0777,0.18078 0,0.0701 -0.0296,0.13415 -0.0777,0.18038 l -2.8e-4,2.8e-4 c -0.0478,0.0462 -0.11407,0.0747 -0.18721,0.0747 -0.0735,0 -0.13985,-0.0285 -0.18798,-0.0747 -0.0478,-0.0462 -0.0777,-0.11027 -0.0777,-0.18076 0,-0.0705 0.0296,-0.13415 0.0777,-0.18039 l 2.9e-4,-2.9e-4 v 0 c 0.0481,-0.0462 0.11445,-0.0751 0.18759,-0.0751 z m 0.0773,0.18115 c -0.0197,-0.019 -0.047,-0.031 -0.0773,-0.031 -0.0307,0 -0.058,0.0117 -0.0777,0.0307 l -2.8e-4,2.8e-4 c -0.0193,0.019 -0.0318,0.0451 -0.0318,0.0747 0,0.0292 0.0125,0.0557 0.0322,0.0747 0.0197,0.019 0.0474,0.0307 0.0777,0.0307 0.0303,0 0.0576,-0.0117 0.0773,-0.0307 h 2.8e-4 c 0.0197,-0.019 0.0318,-0.0454 0.0318,-0.0747 0,-0.0292 -0.0121,-0.0558 -0.0322,-0.0747 z m -2.25034,-0.10614 c 0.0735,0 0.13984,0.0288 0.18797,0.0751 0.0478,0.0462 0.0777,0.11029 0.0777,0.18077 0,0.0702 -0.0299,0.13416 -0.0777,0.1804 l -2.9e-4,2.8e-4 c -0.0481,0.0462 -0.11445,0.0747 -0.18759,0.0747 -0.0731,0 -0.13946,-0.0285 -0.18759,-0.0747 -0.0481,-0.0462 -0.0777,-0.11028 -0.0777,-0.18077 0,-0.0705 0.0296,-0.13416 0.0777,-0.1804 v -2.8e-4 h 2.8e-4 c 0.0481,-0.0462 0.11445,-0.0751 0.18722,-0.0751 z m 0.0777,0.18115 c -0.0197,-0.019 -0.0474,-0.031 -0.0777,-0.031 -0.0303,0 -0.0576,0.0117 -0.0773,0.0307 l -2.8e-4,2.9e-4 c -0.0197,0.019 -0.0318,0.0454 -0.0318,0.0747 0,0.0292 0.0121,0.0558 0.0322,0.0747 0.0197,0.019 0.0474,0.0307 0.0773,0.0307 0.0303,0 0.058,-0.0114 0.0777,-0.0303 l 2.8e-4,-2.9e-4 c 0.0197,-0.0189 0.0318,-0.0454 0.0318,-0.0747 0,-0.0292 -0.0125,-0.0557 -0.0322,-0.0747 z m -0.15538,-1.2131 c 0.0731,0 0.13946,0.0288 0.18759,0.0747 0.0481,0.0466 0.0777,0.11028 0.0777,0.18078 0,0.0705 -0.0296,0.13453 -0.0777,0.18076 l -2.8e-4,2.9e-4 c -0.0481,0.0462 -0.11445,0.0747 -0.18721,0.0747 -0.0731,0 -0.13985,-0.0285 -0.18798,-0.0747 -0.0478,-0.0462 -0.0777,-0.11028 -0.0777,-0.18115 0,-0.0702 0.0299,-0.13378 0.0777,-0.18039 h 2.9e-4 v -2.9e-4 c 0.0481,-0.0462 0.11445,-0.0747 0.18759,-0.0747 z m 0.0773,0.18115 c -0.0197,-0.019 -0.047,-0.031 -0.0773,-0.031 -0.0307,0 -0.058,0.0117 -0.0777,0.0307 l -2.9e-4,2.9e-4 c -0.0197,0.019 -0.0318,0.0451 -0.0318,0.0742 0,0.0292 0.0125,0.0558 0.0322,0.0751 0.0201,0.0189 0.0474,0.0307 0.0777,0.0307 0.0303,0 0.0576,-0.0117 0.0773,-0.0307 h 2.8e-4 c 0.0197,-0.0193 0.0318,-0.0454 0.0318,-0.0751 0,-0.0288 -0.0121,-0.0553 -0.0322,-0.0742 z m -0.89589,1.33891 c 0.0731,0 0.13984,0.0285 0.18759,0.0747 0.0481,0.0462 0.0781,0.11028 0.0781,0.18077 0,0.0705 -0.0299,0.13415 -0.0781,0.18077 v 0 c -0.0481,0.0462 -0.11445,0.0751 -0.18759,0.0751 -0.0731,0 -0.13984,-0.0288 -0.18759,-0.0751 -0.0481,-0.0462 -0.0777,-0.1099 -0.0777,-0.18077 0,-0.0701 0.0296,-0.13415 0.0777,-0.18039 v -2.9e-4 h 2.8e-4 c 0.0481,-0.0462 0.11445,-0.0747 0.18722,-0.0747 z m 0.0777,0.18078 c -0.0201,-0.019 -0.0474,-0.0307 -0.0777,-0.0307 -0.0303,0 -0.058,0.0117 -0.0777,0.0303 v 2.8e-4 c -0.0197,0.019 -0.0318,0.0454 -0.0318,0.0747 0,0.0292 0.0121,0.0557 0.0318,0.0747 0.0201,0.0193 0.0474,0.0307 0.0777,0.0307 0.0303,0 0.0576,-0.0114 0.0777,-0.0303 l 2.8e-4,-2.8e-4 c 0.0197,-0.019 0.0318,-0.0454 0.0318,-0.0747 0,-0.0292 -0.0125,-0.0557 -0.0322,-0.0747 z m -3.09811,2.70891 c 0.0735,0 0.13984,0.0285 0.18759,0.0747 0.0481,0.0462 0.0781,0.11028 0.0781,0.18077 0,0.0705 -0.0299,0.13454 -0.0781,0.18077 v 0 c -0.0481,0.0466 -0.11445,0.075 -0.18759,0.075 -0.0735,0 -0.13984,-0.0285 -0.18797,-0.075 -0.0478,-0.0462 -0.0777,-0.11028 -0.0777,-0.18077 0,-0.0701 0.0299,-0.13415 0.0777,-0.18039 h 2.8e-4 v -2.8e-4 c 0.0485,-0.0462 0.11445,-0.0747 0.18759,-0.0747 z m 0.0773,0.18077 c -0.0197,-0.019 -0.047,-0.0307 -0.0773,-0.0307 -0.0303,0 -0.058,0.0117 -0.0773,0.0307 h -2.8e-4 c -0.0197,0.019 -0.0318,0.0454 -0.0318,0.0747 0,0.0292 0.0121,0.0558 0.0322,0.0747 0.0193,0.0193 0.047,0.031 0.0773,0.031 0.0303,0 0.0576,-0.0117 0.0773,-0.0307 l 2.9e-4,-2.8e-4 c 0.0197,-0.0189 0.0318,-0.0454 0.0318,-0.0747 0,-0.0292 -0.0121,-0.0557 -0.0322,-0.0747 z m -1.18808,-3.22091 c 0.0731,0 0.13984,0.0288 0.18797,0.075 0.0477,0.0462 0.0777,0.11028 0.0777,0.18077 0,0.0705 -0.0299,0.13416 -0.0777,0.18039 l -2.9e-4,2.8e-4 c -0.0481,0.0462 -0.11445,0.0747 -0.18759,0.0747 -0.0731,0 -0.13946,-0.0285 -0.18759,-0.0747 -0.0481,-0.0462 -0.0781,-0.11028 -0.0781,-0.18076 0,-0.0702 0.0299,-0.13417 0.0781,-0.1804 v -2.8e-4 0 c 0.0485,-0.0462 0.11483,-0.075 0.18759,-0.075 z m 0.0777,0.18116 c -0.0201,-0.019 -0.0474,-0.0307 -0.0777,-0.0307 -0.0307,0 -0.058,0.0117 -0.0777,0.0307 v 0 c -0.0197,0.019 -0.0318,0.0454 -0.0318,0.0747 0,0.0292 0.0121,0.0557 0.0318,0.0747 0.0201,0.0193 0.0474,0.031 0.0777,0.031 0.0303,0 0.0576,-0.0117 0.0777,-0.0307 v -2.8e-4 c 0.0197,-0.019 0.0318,-0.0454 0.0318,-0.0747 0,-0.0292 -0.0121,-0.0557 -0.0318,-0.0747 z m -1.87062,3.34672 c 0.0735,0 0.13984,0.0288 0.18797,0.0751 0.0478,0.0462 0.0777,0.11028 0.0777,0.18077 0,0.0702 -0.0299,0.13416 -0.0777,0.18039 l -2.8e-4,2.8e-4 c -0.0481,0.0462 -0.11445,0.0747 -0.18759,0.0747 -0.0731,0 -0.13947,-0.0285 -0.1876,-0.0747 -0.0481,-0.0462 -0.0777,-0.11028 -0.0777,-0.18076 0,-0.0705 0.0296,-0.13417 0.0777,-0.18078 h 2.9e-4 v 0 c 0.0481,-0.0462 0.11445,-0.0751 0.18721,-0.0751 z m 0.0777,0.18115 c -0.0197,-0.0193 -0.0474,-0.031 -0.0777,-0.031 -0.0303,0 -0.0576,0.0117 -0.0773,0.0307 l -2.9e-4,2.8e-4 c -0.0197,0.0189 -0.0318,0.0454 -0.0318,0.0747 0,0.0288 0.0121,0.0553 0.0322,0.0747 0.0197,0.019 0.0474,0.0307 0.0773,0.0307 0.0303,0 0.058,-0.0117 0.0777,-0.0307 h 2.9e-4 c 0.0197,-0.0193 0.0318,-0.0459 0.0318,-0.0747 0,-0.0292 -0.0125,-0.0558 -0.0322,-0.0747 z m -4.07245,-0.31265 c 0.0735,0 0.13984,0.0288 0.18797,0.0751 0.0481,0.0462 0.0777,0.11027 0.0777,0.18076 0,0.0705 -0.0296,0.13416 -0.0777,0.18039 l -2.9e-4,2.9e-4 c -0.0481,0.0462 -0.11444,0.0751 -0.18759,0.0751 -0.0731,0 -0.13946,-0.0288 -0.18759,-0.0751 -0.0481,-0.0462 -0.0777,-0.11028 -0.0777,-0.18077 0,-0.0705 0.0296,-0.13416 0.0777,-0.18039 l 2.9e-4,-2.8e-4 v 0 c 0.0481,-0.0462 0.11407,-0.0751 0.18721,-0.0751 z m 0.0777,0.18114 c -0.0197,-0.019 -0.047,-0.0311 -0.0777,-0.0311 -0.0303,0 -0.0576,0.0117 -0.0773,0.0307 l -2.8e-4,2.9e-4 c -0.0197,0.0189 -0.0318,0.0454 -0.0318,0.0747 0,0.0292 0.0121,0.0553 0.0322,0.0747 0.0197,0.019 0.047,0.031 0.0773,0.031 0.0307,0 0.058,-0.0117 0.0777,-0.0307 l 2.8e-4,-2.9e-4 c 0.0193,-0.0193 0.0318,-0.0454 0.0318,-0.0747 0,-0.0292 -0.0125,-0.0553 -0.0322,-0.0747 z m 0.27324,0.31607 c 0.0731,0 0.13984,0.0288 0.18797,0.0751 0.0478,0.0462 0.0777,0.11028 0.0777,0.18076 0,0.0705 -0.0299,0.13417 -0.0777,0.1804 l -8.6e-4,2.8e-4 c -0.0478,0.0462 -0.11407,0.0751 -0.18721,0.0751 -0.0735,0 -0.13984,-0.0288 -0.18759,-0.0751 -0.0481,-0.0462 -0.0781,-0.11028 -0.0781,-0.18076 0,-0.0701 0.0299,-0.13378 0.0781,-0.18039 v 0 -2.9e-4 c 0.0485,-0.0462 0.11445,-0.0751 0.18759,-0.0751 z m 0.0777,0.18115 c -0.0201,-0.0189 -0.0474,-0.0307 -0.0777,-0.0307 -0.0303,0 -0.058,0.0114 -0.0773,0.0303 l -2.8e-4,2.8e-4 c -0.0197,0.0189 -0.0318,0.0454 -0.0318,0.0747 0,0.0292 0.0121,0.0557 0.0322,0.0747 0.0197,0.019 0.047,0.031 0.0773,0.031 0.0303,0 0.058,-0.0117 0.0777,-0.0307 v -2.8e-4 c 0.0197,-0.019 0.0318,-0.0454 0.0318,-0.0747 0,-0.0292 -0.0121,-0.0557 -0.0318,-0.0747 z m 0.52639,0.11937 c 0.0731,0 0.13946,0.0285 0.18759,0.0747 0.0481,0.0462 0.0781,0.11028 0.0781,0.18078 0,0.0705 -0.0299,0.13454 -0.0781,0.18076 v 0 c -0.0481,0.0466 -0.11445,0.0751 -0.18759,0.0751 -0.0731,0 -0.13984,-0.0285 -0.18759,-0.0751 -0.0481,-0.0462 -0.0777,-0.10989 -0.0777,-0.18076 0,-0.0702 0.0296,-0.13378 0.0777,-0.18039 v 0 -2.9e-4 c 0.0481,-0.0462 0.11445,-0.0747 0.18759,-0.0747 z m 0.0777,0.18078 c -0.0201,-0.019 -0.0474,-0.0307 -0.0777,-0.0307 -0.0303,0 -0.058,0.0117 -0.0777,0.0307 v 0 c -0.0197,0.019 -0.0318,0.0454 -0.0318,0.0747 0,0.0292 0.0121,0.0557 0.0318,0.0747 0.0201,0.0193 0.0474,0.031 0.0777,0.031 0.0303,0 0.0576,-0.0117 0.0777,-0.0307 v -2.8e-4 c 0.0197,-0.019 0.0318,-0.0454 0.0318,-0.0747 0,-0.0292 -0.0121,-0.0553 -0.0318,-0.0747 z m 0.56543,-0.29372 c 0.0731,0 0.13984,0.0288 0.18759,0.0751 0.0481,0.0462 0.0777,0.11029 0.0777,0.18078 0,0.0705 -0.0296,0.13415 -0.0777,0.18076 h -2.8e-4 c -0.0481,0.0462 -0.11408,0.0751 -0.18722,0.0751 -0.0731,0 -0.13984,-0.0288 -0.18759,-0.0751 -0.0481,-0.0462 -0.0781,-0.11027 -0.0781,-0.18076 0,-0.0701 0.0299,-0.13378 0.0781,-0.18039 v -2.9e-4 0 c 0.0481,-0.0462 0.11445,-0.0751 0.18759,-0.0751 z m 0.0773,0.18154 c -0.0197,-0.0193 -0.047,-0.031 -0.0773,-0.031 -0.0307,0 -0.058,0.0117 -0.0777,0.0303 l -2.8e-4,8.5e-4 c -0.0197,0.0186 -0.0318,0.0451 -0.0318,0.0742 0,0.0292 0.0125,0.0558 0.0322,0.0747 0.0201,0.0193 0.0474,0.0311 0.0777,0.0311 0.0303,0 0.0576,-0.0117 0.0773,-0.0307 l 2.8e-4,-2.8e-4 c 0.0197,-0.019 0.0318,-0.0454 0.0318,-0.0747 0,-0.0292 -0.0121,-0.0553 -0.0322,-0.0742 z m 0.25392,-0.7913 c 0.0731,0 0.13946,0.0288 0.18759,0.0751 0.0481,0.0462 0.0777,0.11028 0.0777,0.18077 0,0.0705 -0.0296,0.13415 -0.0777,0.18078 v 0 c -0.0481,0.0462 -0.11445,0.0751 -0.18759,0.0751 -0.0731,0 -0.13985,-0.0288 -0.1876,-0.0751 -0.0481,-0.0462 -0.0781,-0.11029 -0.0781,-0.18078 0,-0.0705 0.0299,-0.13378 0.0781,-0.18039 v -2.9e-4 0 c 0.0485,-0.0462 0.11483,-0.0751 0.1876,-0.0751 z m 0.0773,0.18114 c -0.0197,-0.019 -0.047,-0.0307 -0.0773,-0.0307 -0.0303,0 -0.058,0.0114 -0.0777,0.0303 v 2.9e-4 c -0.0197,0.0189 -0.0318,0.0454 -0.0318,0.0747 0,0.0292 0.0121,0.0558 0.0318,0.0747 0.0201,0.019 0.0474,0.031 0.0777,0.031 0.0303,0 0.0576,-0.0117 0.0773,-0.0307 l 8.5e-4,-2.9e-4 c 0.0193,-0.019 0.0315,-0.0454 0.0315,-0.0747 0,-0.0292 -0.0121,-0.0558 -0.0322,-0.0747 z m -0.34032,-0.74392 c 0.0731,0 0.13947,0.0288 0.18759,0.0751 0.0481,0.0462 0.0777,0.10991 0.0777,0.18039 0,0.0705 -0.0296,0.13454 -0.0777,0.18078 h -2.8e-4 c -0.0478,0.0466 -0.11407,0.0751 -0.18721,0.0751 -0.0735,0 -0.13985,-0.0285 -0.1876,-0.0751 -0.0481,-0.0459 -0.0781,-0.10991 -0.0781,-0.18078 0,-0.0702 0.0296,-0.13378 0.0781,-0.18039 v 0 0 c 0.0481,-0.0462 0.11445,-0.0751 0.1876,-0.0751 z m 0.0773,0.18115 c -0.0197,-0.0193 -0.047,-0.031 -0.0773,-0.031 -0.0307,0 -0.058,0.0117 -0.0777,0.0307 l -2.8e-4,2.8e-4 c -0.0193,0.019 -0.0318,0.0451 -0.0318,0.0743 0,0.0295 0.0125,0.0557 0.0322,0.0747 0.0201,0.0193 0.0474,0.031 0.0777,0.031 0.0303,0 0.0576,-0.0117 0.0773,-0.0303 l 2.8e-4,-8.5e-4 c 0.0197,-0.019 0.0318,-0.0451 0.0318,-0.0747 0,-0.0288 -0.0121,-0.0553 -0.0322,-0.0743 z m -0.72044,-0.49077 c 0.0731,0 0.13985,0.0285 0.1876,0.0751 0.0481,0.0462 0.0777,0.10991 0.0777,0.18078 0,0.0701 -0.0296,0.13415 -0.0777,0.18039 v 2.7e-4 c -0.0481,0.0462 -0.11445,0.0747 -0.1876,0.0747 -0.0731,0 -0.13984,-0.0285 -0.18759,-0.0747 -0.0481,-0.0466 -0.0781,-0.11028 -0.0781,-0.18076 0,-0.0705 0.0299,-0.13416 0.0781,-0.1804 v -2.8e-4 h 2.9e-4 c 0.0478,-0.0466 0.11407,-0.0751 0.18721,-0.0751 z m 0.0773,0.18115 c -0.0197,-0.0193 -0.047,-0.031 -0.0773,-0.031 -0.0303,0 -0.058,0.0117 -0.0777,0.0307 v 2.8e-4 c -0.0197,0.019 -0.0318,0.0451 -0.0318,0.0747 0,0.0292 0.0121,0.0558 0.0318,0.0747 0.0201,0.0189 0.0474,0.0307 0.0777,0.0307 0.0303,0 0.0576,-0.0117 0.0773,-0.0307 h 8.5e-4 c 0.0193,-0.019 0.0315,-0.0454 0.0315,-0.0747 0,-0.0292 -0.0121,-0.0557 -0.0322,-0.0747 z m -0.76894,0.0349 c 0.0731,0 0.13947,0.0285 0.18759,0.0747 0.0481,0.0462 0.0777,0.11028 0.0777,0.18076 0,0.0705 -0.0296,0.13416 -0.0777,0.1804 l -2.8e-4,2.8e-4 c -0.0481,0.0462 -0.11445,0.0751 -0.18721,0.0751 -0.0735,0 -0.13985,-0.0288 -0.18798,-0.0751 -0.0481,-0.0462 -0.0777,-0.11028 -0.0777,-0.18077 0,-0.0701 0.0296,-0.13416 0.0777,-0.18038 h 2.9e-4 v -2.9e-4 c 0.0481,-0.0462 0.11445,-0.0747 0.18759,-0.0747 z m 0.0773,0.18077 c -0.0197,-0.019 -0.0474,-0.031 -0.0773,-0.031 -0.0307,0 -0.058,0.0121 -0.0777,0.031 h -2.8e-4 c -0.0193,0.019 -0.0318,0.0451 -0.0318,0.0747 0,0.0292 0.0125,0.0557 0.0322,0.0747 0.0197,0.019 0.0474,0.0307 0.0777,0.0307 0.0299,0 0.0576,-0.0114 0.0773,-0.0307 h 2.8e-4 c 0.0197,-0.019 0.0318,-0.0454 0.0318,-0.0747 0,-0.0292 -0.0125,-0.0557 -0.0322,-0.0747 z m 6.90377,-4.58975 -0.89969,1.82286 0.58855,2.32198 2.68579,1.19187 2.34812,-0.75946 0.0531,0.001 0.23383,0.0879 -0.22284,0.0769 -0.0417,-0.0156 -2.3504,0.76061 -0.0572,-0.003 -2.74756,-1.21954 -0.0341,-0.0151 -0.009,-0.0352 -0.60409,-2.38299 0.005,-0.0496 0.86103,-1.7448 z m -10.04054,7.75836 c 0.0731,0 0.13946,0.0285 0.18759,0.0747 0.0481,0.0462 0.0777,0.11028 0.0777,0.18076 0,0.0705 -0.0296,0.13417 -0.0777,0.1804 l -2.8e-4,2.8e-4 c -0.0478,0.0462 -0.11446,0.075 -0.18722,0.075 -0.0735,0 -0.13984,-0.0288 -0.18797,-0.075 -0.0481,-0.0462 -0.0777,-0.11028 -0.0777,-0.18076 0,-0.0702 0.0296,-0.13378 0.0777,-0.18039 h 2.9e-4 v -2.9e-4 c 0.0481,-0.0462 0.11445,-0.0747 0.18759,-0.0747 z m 0.0773,0.18076 c -0.0197,-0.019 -0.0474,-0.0307 -0.0773,-0.0307 -0.0307,0 -0.058,0.0114 -0.0777,0.0303 l -2.9e-4,2.9e-4 c -0.0193,0.019 -0.0314,0.0454 -0.0314,0.0747 0,0.0292 0.0121,0.0558 0.0318,0.0747 0.0197,0.019 0.0474,0.031 0.0777,0.031 0.0299,0 0.0576,-0.0117 0.0773,-0.0307 l 2.9e-4,-2.9e-4 c 0.0197,-0.019 0.0318,-0.0454 0.0318,-0.0747 0,-0.0292 -0.0125,-0.0558 -0.0322,-0.0747 z m 0.58514,-5.4163 c 0.0731,0 0.13946,0.0288 0.18759,0.0751 0.0481,0.0462 0.0777,0.11028 0.0777,0.18077 0,0.0705 -0.0296,0.13415 -0.0777,0.18039 v 2.8e-4 c -0.0481,0.0462 -0.11445,0.0751 -0.18759,0.0751 -0.0735,0 -0.13984,-0.0288 -0.18797,-0.0751 -0.0478,-0.0462 -0.0777,-0.11027 -0.0777,-0.18077 0,-0.0701 0.0296,-0.13377 0.0777,-0.18077 h 2.8e-4 v 0 c 0.0481,-0.0462 0.11445,-0.0751 0.18759,-0.0751 z m 0.0773,0.18116 c -0.0197,-0.019 -0.047,-0.0307 -0.0773,-0.0307 -0.0303,0 -0.058,0.0114 -0.0777,0.0303 v 2.8e-4 c -0.0197,0.019 -0.0318,0.0454 -0.0318,0.0747 0,0.0292 0.0121,0.0557 0.0318,0.0747 0.0197,0.019 0.0474,0.031 0.0777,0.031 0.0303,0 0.0576,-0.0117 0.0773,-0.0307 l 2.9e-4,-2.8e-4 c 0.0197,-0.019 0.0318,-0.0454 0.0318,-0.0747 0,-0.0292 -0.0121,-0.0557 -0.0322,-0.0747 z m -5.60199,3.16822 c 0.0735,0 0.13984,0.0288 0.18797,0.0751 0.0481,0.0462 0.0777,0.11028 0.0777,0.18078 0,0.0705 -0.0296,0.13415 -0.0777,0.18076 h -2.9e-4 c -0.0481,0.0462 -0.11445,0.0751 -0.18759,0.0751 -0.0731,0 -0.13946,-0.0288 -0.18759,-0.0751 -0.0481,-0.0462 -0.0777,-0.11027 -0.0777,-0.18076 0,-0.0705 0.0296,-0.13416 0.0777,-0.18039 v -2.9e-4 0 c 0.0485,-0.0462 0.11483,-0.0751 0.18759,-0.0751 z m 0.0777,0.18115 c -0.0201,-0.019 -0.0474,-0.0307 -0.0777,-0.0307 -0.0303,0 -0.0576,0.0117 -0.0773,0.0303 l -2.8e-4,2.8e-4 c -0.0197,0.019 -0.0318,0.0454 -0.0318,0.0747 0,0.0292 0.0121,0.0558 0.0322,0.0747 0.0197,0.0193 0.047,0.0307 0.0773,0.0307 0.0303,0 0.0576,-0.0114 0.0777,-0.0303 v -2.8e-4 c 0.0197,-0.019 0.0318,-0.0454 0.0318,-0.0747 0,-0.0292 -0.0121,-0.0557 -0.0318,-0.0747 z m 2.4459,-1.29761 c 0.0735,0 0.13984,0.0288 0.18797,0.075 0.0478,0.0462 0.0777,0.11028 0.0777,0.18077 0,0.0705 -0.0299,0.13416 -0.0777,0.18039 l -2.9e-4,2.8e-4 c -0.0481,0.0462 -0.11445,0.0747 -0.18759,0.0747 -0.0732,0 -0.13946,-0.0285 -0.18759,-0.0747 -0.0481,-0.0462 -0.0777,-0.11028 -0.0777,-0.18076 0,-0.0702 0.0296,-0.13417 0.0777,-0.1804 v -2.8e-4 0 c 0.0485,-0.0462 0.11483,-0.075 0.18759,-0.075 z m 0.0777,0.18116 c -0.0201,-0.019 -0.0474,-0.0307 -0.0777,-0.0307 -0.0303,0 -0.0576,0.0117 -0.0773,0.0307 h -2.8e-4 c -0.0197,0.019 -0.0318,0.0454 -0.0318,0.0747 0,0.0292 0.0121,0.0557 0.0322,0.0747 0.0197,0.0193 0.047,0.031 0.0773,0.031 0.0303,0 0.058,-0.0117 0.0777,-0.0307 l 2.8e-4,-2.9e-4 c 0.0193,-0.019 0.0315,-0.0454 0.0315,-0.0747 0,-0.0292 -0.0121,-0.0557 -0.0318,-0.0747 z m 20.44527,-6.39671 0.39755,0.89893 1.10395,0.48432 c 0.0269,0.0648 0.0531,0.13075 0.0788,0.19897 l -1.27487,-0.55937 -0.0394,-0.0387 -0.4237,-0.95842 z m 1.84977,2.65168 -2.34357,-1.04711 -0.0296,-0.0133 -0.011,-0.0295 -0.52223,-1.38704 0.15576,-0.0258 0.50176,1.33247 2.21927,0.99177 c 0.0106,0.0603 0.0208,0.11976 0.0296,0.1785 z m -3.67718,-2.34963 0.66851,1.68718 3.03862,1.47194 c -0.006,0.0526 -0.0144,0.10463 -0.0247,0.15576 l -3.11138,-1.50718 -0.0379,-0.0402 -0.68973,-1.74177 z m 0.70792,5.11387 -1.75503,-0.88605 -0.0705,-0.0357 0.0386,-0.067 0.58438,-1.01299 0.036,-0.063 0.0667,0.0322 2.84496,1.36999 -0.025,0.0485 -0.12733,0.0451 -2.69564,-1.29798 -0.50973,0.88377 1.80809,0.91295 z m 2.61872,-1.05014 -3.47217,-1.669 -0.0387,-0.0424 -0.80608,-2.18858 0.15576,-0.0258 0.78637,2.13589 3.46724,1.66674 c -0.0284,0.0413 -0.0591,0.0822 -0.0925,0.12316 z m -8.57505,-3.11479 -1.04597,2.13438 0.34183,1.54091 2.1594,0.97511 2.30113,-0.76704 0.058,0.002 1.29988,0.57945 -0.20541,0.0732 -1.13161,-0.50404 -2.30113,0.76705 -0.0584,-0.003 -2.22306,-1.0039 -0.0352,-0.0159 -0.008,-0.0364 -0.3551,-1.60154 0.006,-0.0474 1.00769,-2.05669 z m 3.07727,3.22393 0.98116,-1.90396 -0.5533,-1.57009 -0.56429,-0.30697 0.2361,-0.0436 0.43051,0.23496 0.0356,0.0409 0.57301,1.62618 0.0106,0.0292 -0.0144,0.028 -1.00997,1.95967 -0.0144,0.028 -0.0307,0.01 -1.65612,0.53398 -0.058,-0.003 -1.33285,-0.6147 -0.0386,-0.0394 -0.37367,-0.8906 -0.0133,-0.0318 0.0167,-0.0307 1.34726,-2.48113 0.19555,-0.0375 -1.38856,2.55732 0.34903,0.83147 1.27714,0.58892 z m -0.53284,-0.65866 0.61735,-1.19793 -0.23914,-1.04521 -0.62,-0.27286 -0.4794,0.13568 -1.03157,1.90055 0.13265,0.42445 0.739,0.37328 z m 0.76894,-1.1551 -0.64312,1.24758 -0.0425,0.0372 -0.9425,0.33993 -0.0326,0.0117 -0.0307,-0.0156 -0.79888,-0.40323 -0.0292,-0.0148 -0.009,-0.0303 -0.15121,-0.48319 0.006,-0.0558 1.06226,-1.95626 0.0152,-0.0285 0.0318,-0.009 0.53814,-0.15272 0.0542,0.004 0.68215,0.30015 0.0356,0.0159 0.008,0.036 0.25316,1.10698 z m -7.51809,-0.56619 1.36317,0.6488 0.5389,-1.03801 0.19366,-0.039 -0.62834,1.21045 -0.0349,0.0667 -0.0694,-0.033 -1.60723,-0.76516 z m 2.61909,5.89191 0.56884,-1.22409 0.0341,-0.0735 0.0735,0.0383 1.21726,0.63364 -0.19972,0.0663 -1.01754,-0.5298 -0.47561,1.0236 z m -12.9829,2.25413 0.81859,-1.57652 0.0781,-0.15008 0.0637,0.15652 0.67419,1.65081 c -0.0546,-2.9e-4 -0.11028,-2.9e-4 -0.16713,0 l -0.58784,-1.4401 -0.72005,1.38591 c -0.0432,-0.004 -0.0872,-0.009 -0.13112,-0.0129 z m -0.71891,-0.0796 1.65422,-3.16708 0.0765,-0.14629 0.0648,0.15159 1.42267,3.32134 -0.047,0.0181 -0.11483,-0.003 -1.33967,-3.12805 -1.55418,2.9757 c -0.0542,-0.008 -0.108,-0.0148 -0.16258,-0.0224 z m 3.6499,-6.11133 -1.25592,2.28407 1.44238,3.45738 1.0615,0.51124 c -0.10232,0.01 -0.20124,0.0174 -0.29711,0.0239 l -0.86028,-0.41422 -0.0375,-0.039 -1.46663,-3.51573 -0.0136,-0.0322 0.0167,-0.0307 1.1824,-2.14993 c 0.0735,-0.0315 0.14894,-0.063 0.22814,-0.0947 z m 8.81835,4.3366 0.71853,-1.35483 -0.90347,-3.24288 -2.89915,-1.33285 c 0.0811,-0.0178 0.16296,-0.0357 0.24595,-0.0534 l 2.75249,1.26577 0.0322,0.0152 0.009,0.033 0.92053,3.3039 -0.006,0.0534 -0.66055,1.24531 z m -6.21593,-5.18513 -1.64286,0.6363 -1.25706,2.32728 1.21575,2.9685 1.78459,0.95541 c -0.0811,0.0156 -0.1603,0.0303 -0.23761,0.0439 l -1.64703,-0.88149 -0.0349,-0.0382 -1.23886,-3.02536 -0.0129,-0.0318 0.0163,-0.03 1.287,-2.38223 0.008,-0.006 c 0.48963,-0.16789 1.06567,-0.34525 1.75958,-0.53549 z m 5.0684,5.5497 1.00465,-1.80012 -0.71436,-2.60659 -3.38272,-1.63148 c 0.0773,-0.0174 0.15576,-0.0352 0.23572,-0.0534 l 3.24781,1.56629 0.0318,0.0152 0.009,0.0325 0.73142,2.66798 -0.007,0.0546 -0.94213,1.68795 z m -3.4248,-5.29048 -2.54973,1.01338 -0.9751,1.99795 0.89286,2.20298 2.34471,1.13805 0.0137,-10e-4 c -0.0826,0.0201 -0.16334,0.039 -0.24293,0.0576 l -2.21245,-1.07401 -0.0371,-0.0394 -0.91561,-2.25945 -0.0121,-0.0295 0.0144,-0.0292 1.00201,-2.05366 0.0405,-0.0375 2.61075,-1.03763 0.0326,-0.0129 0.0318,0.0152 3.00829,1.45678 0.0311,0.0148 0.009,0.0333 0.55975,2.08662 -0.007,0.0543 -1.17823,2.09308 c -0.0724,0.0223 -0.14363,0.0439 -0.21374,0.0652 l 1.24038,-2.20373 -0.54269,-2.02523 z m -0.0148,0.97321 -1.78459,0.70944 -0.76022,1.38211 0.66321,1.58981 1.73835,0.83714 1.6042,-0.1224 1.01944,-1.85394 -0.37973,-1.54432 z m -1.86985,0.58135 1.84332,-0.73256 0.0322,-0.0129 0.0318,0.0148 2.1647,1.02853 0.0334,0.0156 0.008,0.0345 0.39489,1.60609 -0.007,0.0516 -1.05317,1.91571 -0.0201,0.0367 -0.0424,0.003 -1.66787,0.12696 -0.0405,-0.009 -1.78497,-0.85913 -0.0375,-0.039 -0.68746,-1.64816 -0.0133,-0.0322 0.0167,-0.0303 0.78979,-1.43707 z m 1.85773,0.19971 -1.16914,0.46462 -0.49608,0.90234 0.43355,1.03953 1.14223,0.54989 1.0471,-0.0796 0.66776,-1.21461 -0.24785,-1.0077 z m -1.25441,0.33654 1.2275,-0.48775 0.0326,-0.0133 0.0315,0.0152 1.44199,0.68481 0.033,0.0159 0.009,0.0345 0.263,1.06946 -0.007,0.0519 -0.70148,1.27563 -0.0201,0.0367 -0.0425,0.003 -1.11077,0.0845 -0.0409,-0.008 -1.18846,-0.57224 -0.0379,-0.039 -0.4578,-1.09789 -0.0133,-0.0322 0.0167,-0.0303 0.52602,-0.95691 z m -7.24106,4.46545 2.52397,-5.08356 c 0.0807,-0.0486 0.16144,-0.0967 0.24444,-0.14515 l -2.62819,5.29313 z m -2.14348,-0.45061 0.10195,-0.20577 -0.4127,0.21411 -0.0159,-0.003 -0.0686,-0.12278 0.63326,-0.32856 0.10726,0.0982 -0.20465,0.4127 z m 0.64313,0.21034 0.69731,-1.51097 -2.18896,0.81782 c 0.0985,-0.0886 0.19972,-0.18001 0.3028,-0.27362 l 2.00553,-0.74923 0.0989,0.10002 -0.7606,1.64777 c -0.0515,-0.0107 -0.10346,-0.0213 -0.155,-0.0318 z m 3.07954,-4.27332 -2.23405,4.44121 c -0.0527,-0.01 -0.10536,-0.0201 -0.15766,-0.03 l 2.15068,-4.27521 c 0.0102,-0.006 0.0205,-0.0117 0.0307,-0.0174 0.0724,-0.0398 0.14212,-0.0796 0.21033,-0.11862"
       inkscape:connector-curvature="0"
       inkscape:label="Rocket Circuitry" /><path
       id="path40944-1"
       style="display:inline;fill:#000000;fill-opacity:1;fill-rule:nonzero;stroke:none;stroke-width:0.0378974"
       d="m 85.272811,297.15321 5.661117,1.75162 -0.728768,1.80998 -1.901313,-0.58816 -2.218894,5.5118 -1.859247,-0.57529 2.219273,-5.5118 -1.901313,-0.58854 z m 6.146582,1.76602 1.916472,0.40853 -0.754537,2.6282 2.098378,0.44794 0.75416,-2.62856 1.925189,0.41081 -2.160154,7.52679 -1.925187,-0.4108 0.87505,-3.04847 -2.098379,-0.44756 -0.875051,3.04846 -1.916472,-0.40891 z m 6.235261,1.32527 5.209756,0.78752 -0.34524,1.62958 -3.256149,-0.49229 -0.257325,1.21424 3.018524,0.45629 -0.32932,1.55531 -3.018531,-0.45629 -0.318338,1.50187 3.353159,0.50669 -0.36533,1.72547 -5.306772,-0.80229 z m 7.738656,8.84639 0.85572,-7.70908 3.2876,0.22359 c 0.60901,0.0414 1.06871,0.13606 1.37568,0.28499 0.30848,0.1478 0.54269,0.40057 0.70261,0.75492 0.15955,0.35623 0.21109,0.78068 0.15652,1.27259 -0.0474,0.42711 -0.1641,0.79168 -0.35017,1.09183 -0.18494,0.30203 -0.42066,0.5389 -0.7083,0.71474 -0.18153,0.11066 -0.42446,0.19708 -0.7265,0.25808 0.22436,0.11105 0.38504,0.21564 0.4813,0.31834 0.0644,0.0675 0.155,0.21109 0.27021,0.42672 0.11369,0.21564 0.18835,0.38163 0.2217,0.49798 l 0.71133,2.29203 -2.22912,-0.15159 -0.79282,-2.42239 c -0.10004,-0.31418 -0.19706,-0.51958 -0.29067,-0.61811 -0.12961,-0.12848 -0.28499,-0.19859 -0.465,-0.21072 l -0.17395,-0.0117 -0.34638,3.12237 z m 2.48758,-4.44119 0.83375,0.0565 c 0.0891,0.006 0.26831,-0.0178 0.53473,-0.0702 0.13415,-0.022 0.2505,-0.0951 0.34676,-0.22095 0.0974,-0.12505 0.15576,-0.27096 0.17433,-0.43998 0.0276,-0.24937 -0.0163,-0.44568 -0.13226,-0.58741 -0.11597,-0.14363 -0.35359,-0.22663 -0.71475,-0.25126 l -0.86785,-0.0591 z m 4.12931,1.02665 c 0.0311,-1.26161 0.34638,-2.24505 0.94781,-2.94842 0.60105,-0.70527 1.42191,-1.05848 2.46447,-1.06113 1.06757,-0.003 1.88198,0.33994 2.44287,1.0274 0.56088,0.68973 0.8254,1.65687 0.7947,2.90029 -0.022,0.90347 -0.16599,1.64322 -0.43241,2.22154 -0.26679,0.57832 -0.64349,1.02929 -1.12782,1.35294 -0.48585,0.32327 -1.08425,0.48508 -1.79672,0.48736 -0.7227,0.002 -1.31807,-0.13492 -1.7861,-0.41081 -0.46652,-0.27741 -0.84095,-0.71551 -1.12025,-1.31541 -0.27931,-0.59878 -0.40891,-1.35067 -0.38655,-2.25376 z m 1.97976,-2.9e-4 c -0.019,0.77955 0.0883,1.34043 0.32023,1.67961 0.23345,0.33956 0.55785,0.50972 0.97321,0.50858 0.4252,-0.001 0.76097,-0.1694 1.00238,-0.50328 0.24255,-0.335 0.37367,-0.93303 0.39489,-1.7986 0.0182,-0.72688 -0.0913,-1.25744 -0.32667,-1.59132 -0.23648,-0.33615 -0.5624,-0.50252 -0.98041,-0.50138 -0.4002,10e-4 -0.72687,0.17319 -0.97737,0.51389 -0.25164,0.34069 -0.38656,0.90613 -0.40626,1.6925 z m 9.58387,0.4722 1.76602,0.52525 c -0.0894,0.59234 -0.2505,1.09373 -0.48471,1.50037 -0.23269,0.40853 -0.5298,0.72345 -0.89362,0.94516 -0.36268,0.22169 -0.83109,0.35093 -1.40561,0.38541 -0.69845,0.0424 -1.2726,-0.0451 -1.72699,-0.26073 -0.45287,-0.21753 -0.85307,-0.62379 -1.2021,-1.2165 -0.34904,-0.5931 -0.5461,-1.36962 -0.59007,-2.32502 -0.0584,-1.27486 0.17888,-2.27232 0.71172,-2.992 0.53397,-0.71852 1.31693,-1.10963 2.34964,-1.17179 0.80721,-0.0489 1.45223,0.1084 1.93276,0.47373 0.47941,0.36532 0.85156,0.94781 1.11267,1.74934 l -1.72471,0.57036 c -0.072,-0.22966 -0.14401,-0.39641 -0.21601,-0.49987 -0.12014,-0.17471 -0.26263,-0.30659 -0.42673,-0.39413 -0.16561,-0.0886 -0.34676,-0.1262 -0.54534,-0.11445 -0.4506,0.0273 -0.78562,0.26565 -1.00428,0.71284 -0.16599,0.33199 -0.23383,0.84398 -0.20238,1.53182 0.0394,0.85421 0.1732,1.43138 0.40437,1.73609 0.2308,0.30317 0.54118,0.44263 0.93228,0.41914 0.37897,-0.0231 0.65979,-0.16789 0.8417,-0.4362 0.18228,-0.26681 0.30583,-0.64691 0.37139,-1.13882 z m 1.69402,-4.55793 1.9718,-0.21449 0.30469,2.89991 1.76375,-3.12464 2.62477,-0.28537 -2.02865,3.13677 2.94274,4.52646 -2.42847,0.26415 -1.67847,-3.00489 -0.88983,1.39425 0.1963,1.86872 -1.9718,0.2145 z m 7.13039,-0.71398 5.20105,-1.06795 0.36078,1.61027 -3.25008,0.66774 0.26869,1.20022 3.01322,-0.61925 0.34449,1.53713 -3.01322,0.61885 0.33274,1.48407 3.34709,-0.68746 0.38239,1.70538 -5.29768,1.08804 z m 5.54743,-1.07743 5.85666,-1.43744 0.5048,1.84371 -1.96688,0.48243 1.53599,5.6145 -1.9233,0.47183 -1.53598,-5.61413 -1.96688,0.48282 z m 6.10679,-1.54924 5.05021,-1.58676 0.55974,1.5591 -3.15647,0.99178 0.41687,1.16192 2.92604,-0.91977 0.53436,1.48786 -2.92643,0.91938 0.51579,1.43671 3.25044,-1.02134 0.59234,1.65081 -5.14418,1.6167 z m 5.48412,-1.79823 4.89254,-1.96877 0.70602,1.50642 -3.05755,1.23053 0.52602,1.12252 2.8347,-1.14033 0.67419,1.43744 -2.83508,1.14072 0.65108,1.38856 3.14887,-1.26729 0.74771,1.59548 -4.98348,2.00516 z m 9.3212,4.65948 -4.13193,-6.66957 2.89194,-1.51172 c 0.53586,-0.28006 0.98001,-0.44036 1.33094,-0.47789 0.35094,-0.0394 0.70565,0.0444 1.06226,0.24823 0.35775,0.20579 0.66813,0.52223 0.93152,0.94782 0.22928,0.3695 0.3604,0.72422 0.39374,1.06226 0.0352,0.33918 -0.0133,0.65221 -0.14325,0.94251 -0.0826,0.18266 -0.23154,0.37784 -0.44566,0.58211 0.25731,-0.0258 0.45779,-0.0235 0.60294,0.01 0.0963,0.0216 0.26225,0.0913 0.49456,0.20617 0.23079,0.11559 0.39754,0.21146 0.49873,0.28801 l 2.03658,1.48596 -1.96079,1.02513 -2.18705,-1.54925 c -0.2812,-0.20275 -0.49153,-0.31872 -0.63212,-0.35018 -0.18911,-0.0367 -0.36344,-0.0136 -0.52146,0.0694 l -0.15311,0.0799 1.67354,2.70132 z m -0.71133,-4.86906 0.73369,-0.38352 c 0.0784,-0.0409 0.21335,-0.15272 0.40323,-0.33197 0.0989,-0.0868 0.14969,-0.20579 0.1512,-0.35663 0.003,-0.15158 -0.0402,-0.29976 -0.13036,-0.44529 -0.13378,-0.21601 -0.29446,-0.35206 -0.48053,-0.40701 -0.18723,-0.0561 -0.43848,-8.6e-4 -0.75605,0.16523 l -0.76363,0.39905 z m 4.80158,-0.20009 1.42304,-1.15549 c 0.27286,0.26755 0.52411,0.4434 0.74999,0.5245 0.36873,0.13263 0.70602,0.0951 1.01185,-0.11521 0.22739,-0.15652 0.35093,-0.33995 0.36912,-0.55103 0.0189,-0.21185 -0.0409,-0.40058 -0.17887,-0.56695 -0.13075,-0.15803 -0.30622,-0.26036 -0.52677,-0.30545 -0.22057,-0.0447 -0.58893,0.0258 -1.10927,0.2073 -0.85344,0.29712 -1.55681,0.39224 -2.11087,0.28878 -0.5552,-0.10001 -1.03118,-0.3892 -1.42683,-0.8671 -0.25922,-0.31265 -0.4271,-0.66169 -0.50403,-1.04635 -0.0781,-0.38617 -0.0285,-0.76438 0.14893,-1.13615 0.17736,-0.37216 0.53474,-0.74317 1.07288,-1.11305 0.66055,-0.45477 1.28357,-0.65563 1.87173,-0.60257 0.58704,0.0519 1.17558,0.37215 1.76754,0.96108 l -1.41471,1.13843 c -0.26945,-0.24974 -0.52108,-0.39413 -0.75225,-0.43127 -0.23384,-0.0382 -0.46235,0.0213 -0.68746,0.17585 -0.18532,0.12771 -0.28727,0.27134 -0.3047,0.42824 -0.0171,0.15727 0.0303,0.30318 0.14099,0.43695 0.0799,0.0967 0.19023,0.1569 0.33121,0.18305 0.14061,0.0307 0.37973,-0.0178 0.71892,-0.14212 0.84548,-0.30242 1.49466,-0.46538 1.94602,-0.49001 0.45287,-0.0258 0.85951,0.0474 1.22029,0.22321 0.36003,0.17433 0.67836,0.42863 0.9554,0.76288 0.32402,0.3911 0.53169,0.81517 0.6234,1.27259 0.0891,0.45667 0.0424,0.88377 -0.14589,1.28131 -0.18722,0.39679 -0.53057,0.76705 -1.03119,1.11116 -0.87847,0.60446 -1.65347,0.82275 -2.32274,0.656 -0.66926,-0.16713 -1.2813,-0.54306 -1.83573,-1.12858"
       inkscape:connector-curvature="0"
       inkscape:label="The Rocketeers" /><path
       id="path40946-63"
       style="display:inline;fill:#000000;fill-opacity:1;fill-rule:nonzero;stroke:none;stroke-width:0.0378974"
       d="m 67.73946,244.86691 6.540828,-3.60026 1.160609,2.06921 -2.22113,1.19756 3.47163,6.28338 -2.151132,1.15966 -3.465112,-6.25307 -2.175236,1.21272 z m 25.723362,-10.20199 3.198162,-0.56845 2.232916,5.52544 0.188729,-5.95368 3.176181,-0.56467 1.66066,9.37581 -1.97066,0.34866 -1.28017,-7.23082 -0.22549,7.49231 -1.811501,0.32214 -2.777121,-6.85944 1.252508,7.13608 -1.972561,0.33729 z m -2.362904,8.81495 -2.658125,0.81479 0.06026,1.60306 -2.376169,0.70111 0.109524,-9.94808 2.569444,-0.77689 5.590627,8.25784 -2.460301,0.74279 z m -1.08235,-1.82665 -1.823245,-3.03181 0.164475,3.52826 z m -14.517286,-1.0005 6.072605,-2.50881 0.772729,1.87971 -3.788075,1.56895 0.585364,1.406 3.500205,-1.45147 0.739379,1.78496 -3.516501,1.45906 0.732936,1.73191 3.871221,-1.60306 0.836017,1.98583 -6.172352,2.53912 -3.633528,-8.7922"
       inkscape:connector-curvature="0"
       inkscape:label="Team" /></g></svg>
