<svg xmlns="http://www.w3.org/2000/svg" width="483" height="403" viewBox="-0.5 -0.5 483 403" xmlns:v="https://vecta.io/nano"><style><![CDATA[.B{pointer-events:all}.C{fill:#4d4d4d}.D{stroke:#9673a6}.E{stroke:#000}.F{font-family:Helvetica}.G{font-size:24px}.H{text-anchor:end}.I{font-weight:bold}]]></style><path d="M1 41h480v60H1z" class="B C D"/><g fill="#0f0" class="E B"><circle cx="446" cy="71" r="17.5"/><circle cx="344" cy="71" r="17.5"/><circle cx="241" cy="71" r="17.5"/><circle cx="36" cy="71" r="17.5"/><circle cx="139" cy="71" r="17.5"/></g><text x="478.5" y="27.5" fill="#000" class="F G H I">colorIndex = 0</text><path d="M1 141h480v60H1z" class="B C D"/><g fill="#fff" class="E B"><circle cx="446" cy="171" r="17.5"/><circle cx="344" cy="171" r="17.5"/><circle cx="241" cy="171" r="17.5"/><circle cx="36" cy="171" r="17.5"/><circle cx="139" cy="171" r="17.5"/></g><text x="478.5" y="127.5" fill="#000" class="F G H I">colorIndex = 1</text><path d="M1 241h480v60H1z" class="B C D"/><g fill="#0f0" class="E B"><circle cx="446" cy="271" r="17.5"/><circle cx="344" cy="271" r="17.5"/><circle cx="241" cy="271" r="17.5"/><circle cx="36" cy="271" r="17.5"/><circle cx="139" cy="271" r="17.5"/></g><text x="478.5" y="227.5" fill="#000" class="F G H I">colorIndex = 2</text><path d="M1 341h480v60H1z" class="B C D"/><g fill="#fff" class="E B"><circle cx="446" cy="371" r="17.5"/><circle cx="344" cy="371" r="17.5"/><circle cx="241" cy="371" r="17.5"/><circle cx="36" cy="371" r="17.5"/><circle cx="139" cy="371" r="17.5"/></g><text x="478.5" y="327.5" fill="#000" class="F G H I">colorIndex = 3</text></svg>